<svg width="600" height="119" viewBox="0 0 600 119" fill="none" xmlns="http://www.w3.org/2000/svg">
<path d="M49.7835 37.5641C53.8655 37.5641 57.0727 38.916 59.4053 41.6196C61.7378 44.3232 62.9041 48.0076 62.9041 52.6727C62.9041 55.1643 62.5595 57.7884 61.8704 60.5451C60.28 67.1186 57.3113 72.1283 52.9643 75.5741C48.6172 78.9669 43.5811 80.6633 37.8557 80.6633C34.1978 80.6633 31.0171 79.8946 28.3135 78.3573L25.7689 86.8658C25.5568 87.4489 25.4508 88.0055 25.4508 88.5357C25.4508 89.1188 25.5833 89.5959 25.8484 89.967C26.1134 90.3911 26.458 90.7887 26.8821 91.1598C27.3062 91.5839 27.5713 91.9285 27.6773 92.1935C27.8363 92.4586 27.8629 92.7767 27.7568 93.1477C27.5448 93.8369 27.0412 94.314 26.246 94.5791C25.4508 94.8972 24.2315 95.0562 22.5881 95.0562H4.37832C3 95.0562 2.01927 94.8176 1.43613 94.3405C0.79998 93.9164 0.614436 93.3598 0.879498 92.6706C0.985523 92.2465 1.17107 91.9019 1.43613 91.6369C1.70119 91.3718 2.07228 91.1333 2.54939 90.9212C3.34458 90.3911 3.98073 89.8345 4.45784 89.2513C4.93495 88.7212 5.35905 87.8465 5.73014 86.6272L17.3399 48.5377C17.4989 48.0606 17.5784 47.663 17.5784 47.345C17.5784 46.7618 17.4459 46.3112 17.1808 45.9931C16.9158 45.622 16.5182 45.251 15.9881 44.8799C15.4579 44.4558 15.0868 44.0847 14.8748 43.7666C14.6627 43.4485 14.6362 43.0244 14.7953 42.4943C15.1134 41.275 16.7832 40.2148 19.805 39.3136C22.8267 38.3593 25.9809 37.8822 29.2677 37.8822C31.6002 37.8822 33.5087 38.4654 34.993 39.6316C36.5304 40.7979 37.4051 42.4148 37.6171 44.4823C41.222 39.8702 45.2775 37.5641 49.7835 37.5641ZM40.5593 61.1812C41.8316 56.4631 42.4678 53.2028 42.4678 51.4004C42.4678 50.2871 42.2822 49.5715 41.9112 49.2534C41.5931 48.8823 41.116 48.6968 40.4798 48.6968C40.0027 48.6968 39.3931 48.9353 38.6509 49.4124C37.9087 49.8365 37.1665 50.5787 36.4244 51.639L30.1424 72.4729C30.7785 73.109 31.5472 73.4271 32.4484 73.4271C33.8798 73.4271 35.2316 72.6319 36.5039 71.0415C37.8292 69.3981 39.181 66.1114 40.5593 61.1812ZM92.7559 37.8822C99.9656 37.8822 105.267 39.3401 108.66 42.2558C112.105 45.1714 113.828 48.9883 113.828 53.7065C113.828 55.2968 113.616 57.0727 113.192 59.0342C112.185 63.3812 110.303 67.1981 107.546 70.4849C104.79 73.7187 101.397 76.2368 97.368 78.0392C93.3921 79.7886 89.0716 80.6633 84.4065 80.6633C77.0377 80.6633 71.5774 79.2055 68.0256 76.2898C64.5268 73.3211 62.7774 69.3981 62.7774 64.521C62.7774 62.8776 62.9894 61.0487 63.4135 59.0342C64.4208 54.8992 66.3292 51.2414 69.1389 48.0606C72.0015 44.8269 75.4739 42.3353 79.5558 40.5859C83.6908 38.7834 88.0908 37.8822 92.7559 37.8822ZM92.5174 44.9594C91.4041 44.9594 90.2113 45.9666 88.939 47.9811C87.7197 49.9426 86.2619 53.6799 84.5655 59.1932C82.8691 64.7065 82.0209 68.5765 82.0209 70.803C82.0209 71.9693 82.2064 72.7644 82.5775 73.1885C82.9486 73.5596 83.4522 73.7452 84.0884 73.7452C85.2017 73.8512 86.3414 72.897 87.5077 70.8825C88.727 68.868 90.2378 64.9451 92.0403 59.1137C93.6836 53.9715 94.5053 50.2341 94.5053 47.9016C94.5053 46.7883 94.3198 46.0196 93.9487 45.5955C93.6306 45.1714 93.1535 44.9594 92.5174 44.9594ZM141.839 37.4846C145.073 37.4846 147.909 37.9617 150.347 38.916C152.786 39.8172 154.668 41.0895 155.993 42.7329C157.372 44.3232 158.061 46.0992 158.061 48.0606C158.061 50.1811 157.319 51.9305 155.834 53.3089C154.403 54.6872 152.441 55.3763 149.95 55.3763C147.405 55.3763 145.417 54.7402 143.986 53.4679C142.555 52.1426 141.839 50.3667 141.839 48.1401C141.839 47.0799 141.998 45.9666 142.316 44.8004C140.089 45.3835 138.101 46.5498 136.352 48.2992C134.656 49.9956 133.516 52.2486 132.933 55.0583C132.615 56.6486 132.456 58.08 132.456 59.3523C132.456 62.215 133.251 64.3885 134.841 65.8728C136.432 67.3572 138.711 68.0993 141.68 68.0993C143.376 68.0993 144.834 67.9403 146.053 67.6222C147.273 67.2511 148.518 66.774 149.791 66.1909C150.851 65.6608 151.62 65.3957 152.097 65.3957C152.415 65.3957 152.627 65.4752 152.733 65.6343C152.839 65.7403 152.892 66.0053 152.892 66.4294C152.945 68.3909 152.123 70.4584 150.427 72.6319C148.783 74.7524 146.477 76.5548 143.509 78.0392C140.593 79.4705 137.306 80.1862 133.648 80.1862C129.832 80.1862 126.439 79.497 123.47 78.1187C120.554 76.6874 118.275 74.6729 116.631 72.0753C115.041 69.4247 114.246 66.3499 114.246 62.8511C114.246 61.2077 114.458 59.3788 114.882 57.3643C116.313 50.7908 119.468 45.8341 124.345 42.4943C129.275 39.1545 135.106 37.4846 141.839 37.4846ZM202.034 37.8822C205.056 37.8822 207.468 38.7304 209.27 40.4268C211.126 42.0702 212.053 44.0847 212.053 46.4702C212.053 49.0148 211.285 51.0028 209.747 52.4342C208.21 53.8655 206.195 54.5812 203.704 54.5812C201.477 54.5812 199.754 54.0245 198.535 52.9113C197.316 51.745 196.733 50.4462 196.786 49.0148C196.256 48.9088 195.805 49.1209 195.434 49.651C195.063 50.1811 194.665 51.2149 194.241 52.7522C193.976 53.7595 193.472 54.6872 192.73 55.5354C196.335 55.8004 199.012 56.6221 200.762 58.0005C202.511 59.3788 203.386 61.1547 203.386 63.3282C203.386 64.3885 203.2 65.4487 202.829 66.509L202.193 68.974C202.087 69.2391 202.034 69.5837 202.034 70.0078C202.034 70.75 202.378 71.1211 203.068 71.1211C203.704 71.1211 204.234 70.856 204.658 70.3259C205.135 69.7427 205.453 69.4512 205.612 69.4512C205.877 69.4512 206.089 69.6367 206.248 70.0078C206.407 70.3259 206.487 70.7235 206.487 71.2006C206.54 72.7379 206.063 74.2488 205.056 75.7331C204.101 77.1645 202.617 78.3573 200.603 79.3115C198.641 80.2127 196.256 80.6633 193.446 80.6633C190.053 80.6633 187.217 79.8151 184.937 78.1187C182.711 76.4223 181.598 74.1958 181.598 71.4391C181.598 70.4319 181.81 69.2921 182.234 68.0198L183.745 64.0439C184.01 63.0897 184.142 62.4005 184.142 61.9764C184.142 61.2872 183.904 60.7836 183.427 60.4655C183.002 60.1475 182.313 59.9884 181.359 59.9884H179.769L176.19 71.6777C176.031 72.3138 175.952 72.8705 175.952 73.3476C175.952 74.0367 176.084 74.5934 176.349 75.0175C176.614 75.3886 176.986 75.7596 177.463 76.1307C177.834 76.5018 178.099 76.8199 178.258 77.085C178.417 77.297 178.443 77.5886 178.337 77.9597C178.072 78.6488 177.542 79.1524 176.747 79.4705C175.952 79.7886 174.732 79.9476 173.089 79.9476H154.959C153.58 79.9476 152.573 79.7356 151.937 79.3115C151.301 78.8344 151.089 78.2247 151.301 77.4826C151.513 76.8464 152.07 76.2898 152.971 75.8127C153.766 75.3886 154.429 74.8849 154.959 74.3018C155.489 73.7187 155.94 72.7909 156.311 71.5186L168.397 31.8388C168.557 31.3617 168.636 30.9641 168.636 30.646C168.636 30.0629 168.477 29.5858 168.159 29.2147C167.894 28.8436 167.523 28.4725 167.046 28.1014C166.516 27.6773 166.118 27.3062 165.853 26.9882C165.641 26.6701 165.614 26.246 165.773 25.7159C166.091 24.4966 167.761 23.4363 170.783 22.5351C173.805 21.6339 176.959 21.1833 180.246 21.1833C183.32 21.1833 185.574 21.7664 187.005 22.9327C188.436 24.046 189.152 25.6098 189.152 27.6243C189.152 28.8436 188.966 30.0099 188.595 31.1231L181.677 53.7065H184.301C185.361 53.7065 186.21 53.3884 186.846 52.7522C187.535 52.1161 188.065 51.1884 188.436 49.9691C189.762 46.0461 191.484 43.0509 193.605 40.9835C195.725 38.916 198.535 37.8822 202.034 37.8822ZM236.244 37.4846C242.977 37.4846 247.854 38.5714 250.876 40.7449C253.898 42.8654 255.408 45.5955 255.408 48.9353C255.408 49.9426 255.302 50.8703 255.09 51.7185C254.295 55.2173 252.069 57.7354 248.411 59.2728C244.806 60.7571 240.538 61.4993 235.608 61.4993C233.117 61.4993 230.784 61.3403 228.611 61.0222C228.558 63.7788 229.3 65.7138 230.837 66.827C232.374 67.9403 234.521 68.4969 237.278 68.4969C238.55 68.4969 239.77 68.3644 240.936 68.0993C242.102 67.7813 243.587 67.3307 245.389 66.7475C246.873 66.2174 247.881 65.9523 248.411 65.9523C248.994 65.9523 249.285 66.2969 249.285 66.9861C249.338 68.8415 248.649 70.803 247.218 72.8705C245.787 74.8849 243.666 76.6078 240.856 78.0392C238.047 79.4705 234.654 80.1862 230.678 80.1862C224.794 80.1862 219.97 78.7018 216.206 75.7331C212.442 72.7644 210.56 68.4439 210.56 62.7716C210.56 61.1812 210.772 59.3258 211.196 57.2053C212.521 50.6847 215.41 45.7811 219.863 42.4943C224.37 39.1545 229.83 37.4846 236.244 37.4846ZM229.167 56.2511C229.379 56.3041 229.671 56.3306 230.042 56.3306C232.268 56.3306 233.965 55.2968 235.131 53.2293C236.297 51.1619 236.854 48.8558 236.801 46.3112C236.748 44.8269 236.324 44.0847 235.529 44.0847C234.946 44.0847 234.256 44.5618 233.461 45.516C232.666 46.4172 231.871 47.7956 231.076 49.651C230.333 51.5064 229.697 53.7065 229.167 56.2511ZM288.136 38.916C289.143 38.916 289.912 39.128 290.442 39.5521C291.025 39.9762 291.317 40.5594 291.317 41.3015C291.317 41.5136 291.264 41.8847 291.158 42.4148C290.468 44.7473 288.878 45.9136 286.387 45.9136H281.774L275.811 65.5547C275.545 66.3499 275.413 67.1716 275.413 68.0198C275.413 68.974 275.678 69.6367 276.208 70.0078C276.738 70.3789 277.48 70.5644 278.435 70.5644C279.283 70.5644 280.343 70.4584 281.615 70.2463C282.252 70.0873 282.808 70.0078 283.285 70.0078C283.656 70.0078 283.921 70.1403 284.08 70.4054C284.293 70.6174 284.399 70.909 284.399 71.2801C284.452 72.3403 283.656 73.6391 282.013 75.1765C280.423 76.6609 278.249 77.9597 275.492 79.0729C272.736 80.1332 269.688 80.6633 266.348 80.6633C262.743 80.6633 259.854 79.8416 257.68 78.1982C255.507 76.5548 254.42 74.3018 254.42 71.4391C254.42 70.1138 254.632 68.8415 255.056 67.6222L260.145 51.8775C260.41 50.9763 260.543 50.2606 260.543 49.7305C260.543 48.6703 260.278 47.7691 259.748 47.0269C259.271 46.2847 258.581 45.516 257.68 44.7208C256.885 43.9787 256.328 43.369 256.01 42.8919C255.692 42.3618 255.613 41.7521 255.772 41.063C255.984 40.3738 256.434 39.8437 257.124 39.4726C257.813 39.1015 258.9 38.916 260.384 38.916H264.837L269.847 33.9063C271.596 32.1569 273.186 30.9376 274.618 30.2484C276.102 29.5593 278.011 29.2147 280.343 29.2147C283.683 29.2147 285.353 30.487 285.353 33.0316C285.353 33.8268 285.247 34.5689 285.035 35.2581L283.921 38.916H288.136ZM329.158 37.4846C332.392 37.4846 335.228 37.9617 337.667 38.916C340.105 39.8172 341.987 41.0895 343.313 42.7329C344.691 44.3232 345.38 46.0992 345.38 48.0606C345.38 50.1811 344.638 51.9305 343.154 53.3089C341.722 54.6872 339.761 55.3763 337.269 55.3763C334.725 55.3763 332.737 54.7402 331.305 53.4679C329.874 52.1426 329.158 50.3667 329.158 48.1401C329.158 47.0799 329.317 45.9666 329.635 44.8004C327.409 45.3835 325.421 46.5498 323.671 48.2992C321.975 49.9956 320.835 52.2486 320.252 55.0583C319.934 56.6486 319.775 58.08 319.775 59.3523C319.775 62.215 320.57 64.3885 322.161 65.8728C323.751 67.3572 326.031 68.0993 328.999 68.0993C330.696 68.0993 332.153 67.9403 333.373 67.6222C334.592 67.2511 335.838 66.774 337.11 66.1909C338.17 65.6608 338.939 65.3957 339.416 65.3957C339.734 65.3957 339.946 65.4752 340.052 65.6343C340.158 65.7403 340.211 66.0053 340.211 66.4294C340.264 68.3909 339.443 70.4584 337.746 72.6319C336.103 74.7524 333.797 76.5548 330.828 78.0392C327.912 79.4705 324.626 80.1862 320.968 80.1862C317.151 80.1862 313.758 79.497 310.789 78.1187C307.874 76.6874 305.594 74.6729 303.951 72.0753C302.36 69.4247 301.565 66.3499 301.565 62.8511C301.565 61.2077 301.777 59.3788 302.201 57.3643C303.633 50.7908 306.787 45.8341 311.664 42.4943C316.594 39.1545 322.426 37.4846 329.158 37.4846ZM390.944 68.974C390.838 69.1861 390.785 69.5042 390.785 69.9283C390.785 70.2994 390.864 70.5909 391.023 70.803C391.235 71.015 391.5 71.1211 391.818 71.1211C392.455 71.1211 392.985 70.856 393.409 70.3259C393.886 69.7427 394.204 69.4512 394.363 69.4512C394.628 69.4512 394.84 69.6367 394.999 70.0078C395.158 70.3259 395.238 70.7235 395.238 71.2006C395.291 72.7379 394.787 74.2488 393.727 75.7331C392.667 77.1645 391.103 78.3573 389.035 79.3115C387.021 80.2127 384.582 80.6633 381.72 80.6633C378.221 80.6633 375.438 79.8681 373.37 78.2777C371.303 76.6344 370.242 74.4608 370.189 71.7572C370.189 69.7957 370.666 67.5957 371.621 65.1571L375.994 53.7065C376.259 53.0173 376.392 52.4607 376.392 52.0366C376.392 51.3474 376.153 50.8173 375.676 50.4462C375.252 50.0221 374.722 49.81 374.086 49.81C373.078 49.81 372.045 50.2871 370.984 51.2414C369.977 52.1426 369.156 53.6269 368.519 55.6944V55.5354L363.51 71.6777C363.351 72.3138 363.271 72.8705 363.271 73.3476C363.271 74.0367 363.404 74.5934 363.669 75.0175C363.934 75.3886 364.305 75.7596 364.782 76.1307C365.153 76.5018 365.418 76.8199 365.577 77.085C365.736 77.297 365.763 77.5886 365.657 77.9597C365.392 78.6488 364.862 79.1524 364.066 79.4705C363.271 79.7886 362.052 79.9476 360.408 79.9476H342.278C340.9 79.9476 339.893 79.7356 339.257 79.3115C338.62 78.8344 338.408 78.2247 338.62 77.4826C338.832 76.8464 339.389 76.2898 340.29 75.8127C341.085 75.3886 341.748 74.8849 342.278 74.3018C342.808 73.7187 343.259 72.7909 343.63 71.5186L355.717 31.8388C355.876 31.3617 355.955 30.9641 355.955 30.646C355.955 30.0629 355.796 29.5858 355.478 29.2147C355.213 28.8436 354.842 28.4725 354.365 28.1014C353.835 27.6773 353.437 27.3062 353.172 26.9882C352.96 26.6701 352.934 26.246 353.093 25.7159C353.411 24.4966 355.081 23.4363 358.102 22.5351C361.124 21.6339 364.278 21.1833 367.565 21.1833C370.64 21.1833 372.893 21.7664 374.324 22.9327C375.809 24.099 376.551 25.6894 376.551 27.7038C376.551 28.8701 376.365 30.0099 375.994 31.1231L371.7 45.1184C373.768 42.4148 375.941 40.5329 378.221 39.4726C380.553 38.4124 383.071 37.8822 385.775 37.8822C389.009 37.8822 391.606 38.863 393.568 40.8244C395.582 42.7859 396.59 45.3305 396.59 48.4582C396.59 50.1016 396.324 51.7185 395.794 53.3089L390.944 68.974ZM425.849 37.8822C431.946 37.8822 436.823 39.022 440.481 41.3015C444.139 43.5281 445.968 46.9474 445.968 51.5594C445.968 53.3089 445.649 55.2968 445.013 57.5234L441.753 68.4969C441.7 68.709 441.674 68.974 441.674 69.2921C441.674 70.1403 442.018 70.5644 442.707 70.5644C443.343 70.5644 443.874 70.2994 444.298 69.7692C444.775 69.1861 445.093 68.8945 445.252 68.8945C445.517 68.8945 445.729 69.0801 445.888 69.4512C446.1 69.8222 446.206 70.2463 446.206 70.7235C446.259 72.1548 445.702 73.6126 444.536 75.097C443.423 76.5813 441.912 77.8006 440.004 78.7549C438.095 79.7091 436.001 80.1862 433.722 80.1862C430.965 80.1862 428.606 79.6826 426.644 78.6753C424.683 77.6681 423.331 76.1837 422.589 74.2223C420.999 76.1307 419.117 77.6151 416.943 78.6753C414.77 79.6826 412.437 80.1862 409.946 80.1862C407.136 80.1862 404.777 79.6561 402.868 78.5958C400.96 77.4826 399.529 76.0777 398.574 74.3813C397.673 72.6319 397.223 70.803 397.223 68.8945C397.223 68.0463 397.302 67.2246 397.461 66.4294C398.309 62.7716 400.138 60.0149 402.948 58.1595C405.811 56.3041 409.203 55.3763 413.126 55.3763C417.526 55.3763 421.847 56.0655 426.088 57.4438L428.076 52.1956C428.765 49.9691 429.11 48.2462 429.11 47.0269C429.057 45.7546 428.632 44.8004 427.837 44.1642C427.042 43.5281 425.823 43.21 424.179 43.21C424.497 44.0582 424.657 44.9329 424.657 45.8341C424.657 47.7956 423.914 49.492 422.43 50.9233C420.946 52.3546 418.825 53.0703 416.069 53.0703C413.471 53.0703 411.43 52.5137 409.946 51.4004C408.514 50.2341 407.799 48.8028 407.799 47.1064C407.799 44.4558 409.283 42.2558 412.252 40.5063C415.22 38.7569 419.753 37.8822 425.849 37.8822ZM421.396 61.9764C419.912 61.9764 418.693 62.5595 417.738 63.7258C416.837 64.8391 416.387 66.0584 416.387 67.3837C416.387 68.2319 416.572 68.921 416.943 69.4512C417.367 69.9813 417.95 70.2463 418.693 70.2463C419.382 70.2463 420.124 69.9813 420.919 69.4512C421.767 68.868 422.377 68.0198 422.748 66.9066L424.418 62.215C423.517 62.0559 422.51 61.9764 421.396 61.9764ZM497.519 68.974C497.413 69.1861 497.36 69.5042 497.36 69.9283C497.36 70.2994 497.44 70.5909 497.599 70.803C497.811 71.015 498.076 71.1211 498.394 71.1211C499.03 71.1211 499.56 70.856 499.984 70.3259C500.461 69.7427 500.78 69.4512 500.939 69.4512C501.204 69.4512 501.416 69.6367 501.575 70.0078C501.734 70.3259 501.813 70.7235 501.813 71.2006C501.866 72.7379 501.363 74.2488 500.302 75.7331C499.242 77.1645 497.678 78.3573 495.611 79.3115C493.596 80.2127 491.158 80.6633 488.295 80.6633C484.796 80.6633 482.013 79.8681 479.946 78.2777C477.878 76.6344 476.818 74.4608 476.765 71.7572C476.765 69.7957 477.242 67.5957 478.196 65.1571L482.57 53.7065C482.835 53.0173 482.967 52.4607 482.967 52.0366C482.967 51.3474 482.729 50.8173 482.252 50.4462C481.828 50.0221 481.297 49.81 480.661 49.81C479.495 49.81 478.382 50.3667 477.322 51.4799C476.261 52.5402 475.493 53.8655 475.015 55.4559L470.085 71.6777C469.873 72.2608 469.767 72.8175 469.767 73.3476C469.767 73.9837 469.9 74.5139 470.165 74.938C470.43 75.309 470.801 75.7066 471.278 76.1307C471.649 76.4488 471.914 76.7404 472.073 77.0054C472.232 77.2705 472.259 77.5886 472.153 77.9597C471.941 78.6488 471.437 79.1524 470.642 79.4705C469.847 79.7886 468.601 79.9476 466.905 79.9476H448.774C447.396 79.9476 446.415 79.7356 445.832 79.3115C445.196 78.8344 444.957 78.2247 445.116 77.4826C445.328 76.8464 445.885 76.2898 446.786 75.8127C447.582 75.3886 448.244 74.8849 448.774 74.3018C449.304 73.7187 449.755 72.7909 450.126 71.5186L457.203 48.5377C457.309 48.2727 457.362 47.9016 457.362 47.4245C457.362 46.8413 457.23 46.3907 456.965 46.0727C456.753 45.7546 456.382 45.357 455.851 44.8799C455.321 44.4558 454.95 44.0847 454.738 43.7666C454.526 43.4485 454.5 43.0244 454.659 42.4943C454.977 41.275 456.647 40.2148 459.668 39.3136C462.69 38.3593 465.844 37.8822 469.131 37.8822C471.782 37.8822 473.876 38.6244 475.413 40.1087C476.95 41.5401 477.64 43.5546 477.481 46.1522C479.654 43.0244 481.96 40.8774 484.399 39.7112C486.837 38.4919 489.488 37.8822 492.351 37.8822C495.584 37.8822 498.182 38.863 500.143 40.8244C502.158 42.7859 503.165 45.3305 503.165 48.4582C503.165 50.1016 502.9 51.7185 502.37 53.3089L497.519 68.974ZM552.214 24.9207C553.91 24.9207 555.554 25.2918 557.144 26.0339C558.787 26.7231 560.113 27.7038 561.12 28.9761C562.18 30.1954 562.71 31.5207 562.71 32.9521C562.71 36.0798 560.59 37.6437 556.349 37.6437C555.13 37.6437 554.175 37.5642 553.486 37.4051C552.85 37.1931 552.081 36.875 551.18 36.4509C551.021 36.822 550.942 37.3521 550.942 38.0413C550.942 38.8895 551.074 39.8967 551.339 41.063C551.657 42.2293 552.028 43.316 552.452 44.3232C553.566 45.9666 554.122 47.9281 554.122 50.2076C554.122 51.2149 553.99 52.4342 553.725 53.8655C553.089 56.6221 551.684 59.1402 549.51 61.4198C547.39 63.6993 544.633 65.5017 541.24 66.827C537.9 68.0993 534.216 68.7355 530.187 68.7355C527.112 68.7355 524.223 68.5234 521.52 68.0993C520.724 68.7885 520.327 69.6367 520.327 70.6439C520.327 71.3331 520.645 71.9162 521.281 72.3934C521.917 72.8175 522.977 73.0295 524.462 73.0295H536.39C540.472 73.0295 543.652 73.7452 545.932 75.1765C548.211 76.5548 549.351 78.5428 549.351 81.1404C549.351 82.0946 549.192 83.0754 548.874 84.0826C548.238 86.1501 546.78 88.0585 544.501 89.808C542.274 91.6104 539.12 93.0682 535.038 94.1815C530.956 95.2947 525.999 95.8514 520.168 95.8514C514.973 95.8514 510.573 95.4008 506.968 94.4996C503.363 93.5983 500.686 92.3526 498.936 90.7622C497.134 89.2248 496.233 87.5019 496.233 85.5935C496.233 85.1694 496.339 84.5332 496.551 83.685C497.028 82.1476 498.115 80.9019 499.811 79.9476C501.454 78.9404 504.185 78.2777 508.001 77.9597C506.729 76.7404 506.093 75.2825 506.093 73.5861C506.093 73.003 506.173 72.3934 506.332 71.7572C507.18 69.0006 509.671 66.9596 513.806 65.6343C509.83 63.4607 507.842 60.28 507.842 56.092C507.842 54.9257 508.001 53.7065 508.32 52.4342C508.956 49.6775 510.361 47.1859 512.534 44.9594C514.708 42.6799 517.491 40.8774 520.883 39.5521C524.276 38.2268 527.987 37.5641 532.016 37.5641C538.325 37.5641 543.281 38.3858 546.886 40.0292C546.091 38.8099 545.455 37.5111 544.978 36.1328C544.554 34.7015 544.342 33.4027 544.342 32.2364C544.342 30.2219 544.978 28.499 546.25 27.0677C547.575 25.6363 549.563 24.9207 552.214 24.9207ZM534.958 53.1498C535.806 50.4462 536.231 48.3787 536.231 46.9474C536.231 45.1449 535.462 44.2437 533.925 44.2437C532.599 44.2437 531.433 44.9064 530.426 46.2317C529.472 47.504 528.491 49.81 527.484 53.1498C526.635 55.9065 526.211 58.0005 526.211 59.4318C526.211 61.1812 526.953 62.0559 528.438 62.0559C529.763 62.0559 530.929 61.3933 531.937 60.068C532.944 58.7426 533.951 56.4366 534.958 53.1498ZM519.134 81.0609C517.65 81.0609 516.298 80.9814 515.079 80.8223C514.442 81.6175 514.124 82.6778 514.124 84.0031C514.177 85.3284 514.708 86.2826 515.715 86.8658C516.775 87.4489 518.392 87.7405 520.565 87.7405C523.216 87.7405 525.363 87.3429 527.006 86.5477C528.703 85.7525 529.551 84.6127 529.551 83.1284C529.551 82.4922 529.312 81.9886 528.835 81.6175C528.358 81.2464 527.669 81.0609 526.768 81.0609H519.134ZM580.265 37.4846C586.998 37.4846 591.875 38.5714 594.897 40.7449C597.918 42.8654 599.429 45.5955 599.429 48.9353C599.429 49.9426 599.323 50.8703 599.111 51.7185C598.316 55.2173 596.09 57.7354 592.432 59.2728C588.827 60.7571 584.559 61.4993 579.629 61.4993C577.138 61.4993 574.805 61.3403 572.632 61.0222C572.579 63.7788 573.321 65.7138 574.858 66.827C576.395 67.9403 578.542 68.4969 581.299 68.4969C582.571 68.4969 583.791 68.3644 584.957 68.0993C586.123 67.7813 587.608 67.3307 589.41 66.7475C590.894 66.2174 591.902 65.9523 592.432 65.9523C593.015 65.9523 593.306 66.2969 593.306 66.9861C593.359 68.8415 592.67 70.803 591.239 72.8705C589.808 74.8849 587.687 76.6078 584.877 78.0392C582.068 79.4705 578.675 80.1862 574.699 80.1862C568.815 80.1862 563.99 78.7018 560.227 75.7331C556.463 72.7644 554.581 68.4439 554.581 62.7716C554.581 61.1812 554.793 59.3258 555.217 57.2053C556.542 50.6847 559.431 45.7811 563.884 42.4943C568.391 39.1545 573.851 37.4846 580.265 37.4846ZM573.188 56.2511C573.4 56.3041 573.692 56.3306 574.063 56.3306C576.289 56.3306 577.986 55.2968 579.152 53.2293C580.318 51.1619 580.875 48.8558 580.822 46.3112C580.769 44.8269 580.345 44.0847 579.55 44.0847C578.967 44.0847 578.277 44.5618 577.482 45.516C576.687 46.4172 575.892 47.7956 575.097 49.651C574.354 51.5064 573.718 53.7065 573.188 56.2511Z" fill="#DF2B64"/>
<path d="M171.25 33.1976L159.5 74.6976" stroke="#7C072C" stroke-width="2" stroke-linecap="round" stroke-linejoin="round" stroke-dasharray="6 6"/>
<path d="M22.5 46.0726L8 90.4476" stroke="#7C072C" stroke-width="2" stroke-linecap="round" stroke-linejoin="round" stroke-dasharray="6 6"/>
<path d="M58.375 45.5726C60.9167 53.156 61.475 70.2476 43.375 77.9476" stroke="#7C072C" stroke-width="2" stroke-linecap="round" stroke-linejoin="round" stroke-dasharray="6 6"/>
<path d="M106.125 43.9476C108.375 46.3643 110.991 52.1764 109.875 58.0726C109 62.6976 107.125 73.0726 90.25 77.9476" stroke="#7C072C" stroke-width="2" stroke-linecap="round" stroke-linejoin="round" stroke-dasharray="5 5"/>
<path d="M262.624 51.4476L260.061 60.0414L257.76 67.7571C256.574 73.3821 259.335 79.9196 273.385 77.0696" stroke="#7C072C" stroke-width="2" stroke-linecap="round" stroke-linejoin="round" stroke-dasharray="6 6"/>
<path d="M338.125 41.5726C329.375 37.7286 309.875 41.7286 305.875 54.3536" stroke="#7C072C" stroke-width="2" stroke-linecap="round" stroke-linejoin="round" stroke-dasharray="6 6"/>
<path d="M377.875 43.0913C379.917 41.7827 385.507 39.5187 389.875 43.0913C395.875 47.9987 389.875 62.4754 386.625 70.5726" stroke="#7C072C" stroke-width="2" stroke-linecap="round" stroke-linejoin="round" stroke-dasharray="5 5"/>
<path d="M549 45.603C550.875 50.1447 551.15 60.478 537.25 65.478C535.125 65.978 529.05 66.678 521.75 65.478" stroke="#7C072C" stroke-width="2" stroke-linecap="round" stroke-linejoin="round" stroke-dasharray="5 5"/>
<path d="M558.25 62.3226C558.25 72.3226 571.472 83.5726 588.625 73.4476" stroke="#7C072C" stroke-width="2" stroke-linecap="round" stroke-linejoin="round" stroke-dasharray="5 5"/>
<path d="M459.875 48.4476L452.125 73.6976" stroke="#7C072C" stroke-width="2" stroke-linecap="round" stroke-linejoin="round" stroke-dasharray="4 4"/>
<path fill-rule="evenodd" clip-rule="evenodd" d="M228.758 8.12256C232.726 8.12256 235.707 8.87583 237.703 10.3824L237.594 9.57642H237.998L239.785 12.605C240.668 13.9715 241.109 15.5691 241.109 17.3975C241.109 18.3297 240.985 19.3706 240.736 20.5202C240.146 23.0681 239.043 25.3053 237.427 27.2317C235.812 29.1271 233.823 30.603 231.461 31.6595C229.131 32.6848 226.599 33.1975 223.864 33.1975C219.554 32.9504 216.88 32.4375 214.169 30.4594C213.58 29.9598 213.084 29.4286 212.675 28.8573L212.671 28.8795L212.515 28.6242C212.412 28.4681 212.314 28.3089 212.224 28.1467L210.451 25.2392L211.461 26.1923C211.277 25.4371 211.187 24.6219 211.187 23.7361C211.187 22.7729 211.311 21.7009 211.56 20.5202C212.15 18.0966 213.269 15.9527 214.916 14.0883C216.594 12.193 218.629 10.7326 221.021 9.70722C223.445 8.65078 226.024 8.12256 228.758 8.12256Z" fill="#DBA939"/>
<mask id="mask0_1_632" style="mask-type:alpha" maskUnits="userSpaceOnUse" x="209" y="5" width="31" height="26">
<path d="M227.001 5.19189C231.227 5.19189 234.334 6.04637 236.322 7.75532C238.342 9.46427 239.352 11.7014 239.352 14.4668C239.352 15.399 239.228 16.4399 238.979 17.5896C238.389 20.1374 237.286 22.3746 235.67 24.3011C234.054 26.1964 232.066 27.6724 229.704 28.7288C227.374 29.7542 224.841 30.2669 222.107 30.2669C217.788 30.2669 214.588 29.4124 212.506 27.7034C210.455 25.9634 209.43 23.6641 209.43 20.8055C209.43 19.8423 209.554 18.7703 209.803 17.5896C210.393 15.1659 211.511 13.022 213.158 11.1577C214.836 9.2623 216.871 7.80193 219.264 6.77656C221.688 5.72011 224.266 5.19189 227.001 5.19189Z" fill="#FCC751"/>
</mask>
<g mask="url(#mask0_1_632)">
<path d="M227.001 5.19189C231.227 5.19189 234.334 6.04637 236.322 7.75532C238.342 9.46427 239.352 11.7014 239.352 14.4668C239.352 15.399 239.228 16.4399 238.979 17.5896C238.389 20.1374 237.286 22.3746 235.67 24.3011C234.054 26.1964 232.066 27.6724 229.704 28.7288C227.374 29.7542 224.841 30.2669 222.107 30.2669C217.788 30.2669 214.588 29.4124 212.506 27.7034C210.455 25.9634 209.43 23.6641 209.43 20.8055C209.43 19.8423 209.554 18.7703 209.803 17.5896C210.393 15.1659 211.511 13.022 213.158 11.1577C214.836 9.2623 216.871 7.80193 219.264 6.77656C221.688 5.72011 224.266 5.19189 227.001 5.19189Z" fill="#FCC751"/>
<rect x="232.196" y="0.289917" width="3.50185" height="35.4604" transform="rotate(43.914 232.196 0.289917)" fill="#FDD16E"/>
<rect x="236.341" y="2.70093" width="1.27984" height="35.4604" transform="rotate(43.914 236.341 2.70093)" fill="#FDD16E"/>
<rect x="242.968" y="10.6031" width="1.27984" height="35.4604" transform="rotate(43.914 242.968 10.6031)" fill="#FDD16E"/>
</g>
<path d="M223.206 25.9472C222.897 25.9472 222.648 25.8599 222.46 25.6852C222.286 25.524 222.198 25.2955 222.198 25C222.198 24.8522 222.219 24.6977 222.259 24.5364L222.581 23.2869C222.071 23.0719 221.54 22.7495 220.989 22.3195L220.264 22.9241C219.928 23.2063 219.652 23.4011 219.437 23.5086C219.222 23.6026 218.981 23.6497 218.712 23.6497C218.403 23.6497 218.161 23.5758 217.986 23.428C217.798 23.2802 217.704 23.0786 217.704 22.8234C217.704 22.689 217.731 22.5479 217.785 22.4001L218.772 19.3972C218.88 19.0479 219.028 18.7993 219.216 18.6515C219.404 18.5037 219.646 18.4298 219.941 18.4298C220.25 18.4298 220.526 18.5373 220.767 18.7523C221.023 18.9673 221.352 19.3569 221.755 19.9212C222.266 20.6468 222.729 21.1103 223.146 21.3118L223.831 18.7926C223.723 18.7254 223.32 18.4836 222.622 18.0671C221.936 17.6371 221.392 17.1266 220.989 16.5354C220.6 15.9442 220.405 15.2993 220.405 14.6006C220.405 14.1438 220.479 13.6736 220.626 13.1899C220.909 12.2628 221.486 11.5171 222.36 10.9528C223.233 10.3885 224.234 10.1063 225.363 10.1063L226.209 10.1467L226.531 8.93743C226.639 8.57466 226.787 8.31938 226.975 8.17159C227.176 8.02379 227.438 7.94989 227.761 7.94989C228.03 7.94989 228.231 8.03051 228.365 8.19174C228.513 8.33953 228.587 8.54779 228.587 8.8165C228.587 9.00461 228.56 9.17927 228.507 9.3405L228.144 10.6303C228.345 10.6572 228.762 10.8588 229.393 11.235L229.857 10.852C230.179 10.5968 230.441 10.4221 230.643 10.328C230.858 10.234 231.1 10.187 231.368 10.187C231.691 10.187 231.946 10.2609 232.134 10.4087C232.322 10.543 232.416 10.7445 232.416 11.0133C232.416 11.1207 232.396 11.235 232.356 11.3559L231.509 14.1371C231.415 14.4596 231.294 14.688 231.147 14.8223C231.012 14.9567 230.804 15.0239 230.522 15.0239C230.226 15.0239 229.964 14.9365 229.736 14.7619C229.521 14.5738 229.178 14.1976 228.708 13.6332C228.439 13.3242 228.224 13.0958 228.063 12.948C227.915 12.8002 227.761 12.6793 227.6 12.5853L226.955 14.9432C227.062 15.0104 227.479 15.259 228.204 15.6889C228.93 16.1189 229.507 16.6429 229.937 17.2609C230.367 17.8655 230.582 18.5105 230.582 19.1957C230.582 19.6122 230.515 20.0287 230.381 20.4452C230.058 21.5201 229.434 22.3397 228.507 22.904C227.579 23.4548 226.498 23.7303 225.262 23.7303H224.536L224.194 24.9395C224.086 25.2888 223.952 25.5441 223.791 25.7053C223.643 25.8666 223.448 25.9472 223.206 25.9472ZM225.705 11.9806C225.262 11.9538 224.892 12.0411 224.597 12.2426C224.301 12.4307 224.153 12.6995 224.153 13.0488C224.153 13.2772 224.227 13.4922 224.375 13.6937C224.536 13.8952 224.765 14.0699 225.06 14.2177L225.705 11.9806ZM225.04 21.8157C225.483 21.8425 225.853 21.7619 226.149 21.5738C226.444 21.3723 226.592 21.0969 226.592 20.7475C226.592 20.5191 226.511 20.3041 226.35 20.1026C226.202 19.9011 225.981 19.7264 225.685 19.5786L225.04 21.8157Z" fill="#DBA939"/>
<path fill-rule="evenodd" clip-rule="evenodd" d="M252.912 2.79321C249.907 2.79321 247.649 3.36378 246.137 4.50492L246.22 3.89441H245.913L244.56 6.18909C243.891 7.22403 243.557 8.43379 243.557 9.81838C243.557 10.5244 243.651 11.3128 243.84 12.1836C244.287 14.1135 245.122 15.808 246.346 17.2672C247.57 18.7028 249.076 19.8207 250.865 20.6209C252.63 21.3975 254.548 21.7859 256.619 21.7859C259.884 21.5987 261.909 21.2102 263.963 19.7119C264.408 19.3335 264.785 18.9311 265.094 18.4984L265.098 18.5153L265.216 18.3211C265.294 18.2033 265.367 18.0834 265.436 17.9611L266.779 15.758L266.014 16.4799C266.154 15.9079 266.221 15.2904 266.221 14.6195C266.221 13.8899 266.127 13.078 265.939 12.1836C265.492 10.3479 264.644 8.72401 263.397 7.31191C262.126 5.87628 260.585 4.77014 258.772 3.99349C256.937 3.19331 254.983 2.79321 252.912 2.79321Z" fill="#DBA939"/>
<mask id="mask1_1_632" style="mask-type:alpha" maskUnits="userSpaceOnUse" x="244" y="0" width="24" height="20">
<path d="M254.243 0.573486C251.042 0.573486 248.689 1.22069 247.182 2.51511C245.653 3.80953 244.888 5.50405 244.888 7.59865C244.888 8.3047 244.982 9.09312 245.17 9.96391C245.617 11.8938 246.453 13.5883 247.677 15.0474C248.9 16.4831 250.407 17.601 252.195 18.4012C253.96 19.1778 255.878 19.5661 257.95 19.5661C261.221 19.5661 263.645 18.9189 265.222 17.6245C266.775 16.3066 267.552 14.565 267.552 12.3998C267.552 11.6702 267.458 10.8582 267.269 9.96391C266.822 8.12819 265.975 6.50428 264.728 5.09219C263.457 3.65656 261.915 2.55042 260.103 1.77377C258.267 0.973579 256.314 0.573486 254.243 0.573486Z" fill="#FCC751"/>
</mask>
<g mask="url(#mask1_1_632)">
<path d="M254.243 0.573486C251.042 0.573486 248.689 1.22069 247.182 2.51511C245.653 3.80953 244.888 5.50405 244.888 7.59865C244.888 8.3047 244.982 9.09312 245.17 9.96391C245.617 11.8938 246.453 13.5883 247.677 15.0474C248.9 16.4831 250.407 17.601 252.195 18.4012C253.96 19.1778 255.878 19.5661 257.95 19.5661C261.221 19.5661 263.645 18.9189 265.222 17.6245C266.775 16.3066 267.552 14.565 267.552 12.3998C267.552 11.6702 267.458 10.8582 267.269 9.96391C266.822 8.12819 265.975 6.50428 264.728 5.09219C263.457 3.65656 261.915 2.55042 260.103 1.77377C258.267 0.973579 256.314 0.573486 254.243 0.573486Z" fill="#FCC751"/>
<rect width="2.65243" height="26.859" transform="matrix(-0.720381 0.693578 0.693578 0.720381 250.308 -3.1394)" fill="#FDD16E"/>
<rect width="0.969399" height="26.859" transform="matrix(-0.720381 0.693578 0.693578 0.720381 247.169 -1.31323)" fill="#FDD16E"/>
<rect width="0.969399" height="26.859" transform="matrix(-0.720381 0.693578 0.693578 0.720381 242.149 4.67212)" fill="#FDD16E"/>
</g>
<path d="M258.55 16.9486C258.346 17.0636 258.149 17.0985 257.96 17.0533C257.785 17.012 257.642 16.8938 257.532 16.6989C257.477 16.6014 257.433 16.4919 257.4 16.3706L257.147 15.4263C256.731 15.4745 256.26 15.4594 255.737 15.3809L255.483 16.0498C255.367 16.3609 255.258 16.592 255.156 16.7429C255.049 16.885 254.907 17.006 254.73 17.106C254.526 17.2211 254.339 17.2624 254.169 17.2299C253.99 17.2024 253.853 17.1045 253.758 16.9361C253.708 16.8475 253.673 16.7444 253.653 16.6269L253.187 14.2784C253.128 14.008 253.133 13.789 253.202 13.6215C253.271 13.454 253.403 13.3152 253.598 13.2052C253.802 13.0901 254.023 13.0585 254.263 13.1103C254.511 13.1571 254.873 13.2915 255.349 13.5137C255.956 13.8023 256.435 13.9355 256.784 13.9134L256.299 11.9965C256.203 11.9922 255.847 11.9827 255.231 11.9681C254.619 11.9395 254.07 11.8053 253.584 11.5654C253.107 11.3205 252.738 10.9676 252.478 10.5067C252.308 10.2053 252.182 9.86764 252.099 9.49355C251.94 8.77698 252.044 8.07002 252.41 7.37268C252.776 6.67534 253.331 6.1166 254.075 5.69647L254.649 5.40796L254.411 4.49026C254.347 4.21095 254.35 3.98754 254.419 3.82002C254.497 3.64751 254.642 3.50123 254.855 3.38119C255.032 3.28116 255.195 3.25931 255.344 3.31565C255.496 3.35813 255.622 3.46799 255.722 3.64525C255.792 3.76933 255.84 3.89455 255.864 4.02091L256.105 5.00679C256.248 4.9495 256.598 4.92739 257.154 4.94048L257.318 4.51533C257.435 4.2269 257.543 4.01415 257.641 3.87709C257.748 3.73502 257.89 3.61397 258.067 3.51394C258.28 3.3939 258.476 3.34762 258.655 3.37509C258.829 3.3937 258.966 3.49163 259.066 3.66889C259.106 3.73979 259.135 3.82263 259.154 3.9174L259.631 6.06712C259.689 6.31484 259.694 6.51052 259.646 6.65417C259.608 6.79281 259.495 6.91465 259.309 7.01968C259.114 7.12972 258.909 7.16964 258.693 7.13945C258.481 7.09539 258.115 6.97477 257.595 6.77759C257.303 6.67377 257.076 6.60313 256.915 6.56565C256.762 6.52318 256.615 6.50093 256.474 6.49891L256.926 8.29442C257.022 8.29873 257.389 8.30764 258.028 8.32117C258.667 8.3347 259.243 8.46528 259.757 8.71292C260.265 8.9517 260.647 9.2971 260.902 9.74911C261.057 10.0239 261.168 10.3236 261.234 10.6484C261.422 11.4774 261.315 12.2507 260.913 12.968C260.507 13.6765 259.896 14.2608 259.081 14.721L258.602 14.991L258.826 15.9162C258.885 16.1867 258.892 16.4051 258.845 16.5715C258.808 16.7328 258.709 16.8585 258.55 16.9486ZM254.999 6.8053C254.697 6.95263 254.485 7.14778 254.365 7.39076C254.241 7.62487 254.243 7.85715 254.373 8.08758C254.458 8.23825 254.587 8.35255 254.759 8.43048C254.941 8.5034 255.156 8.53359 255.406 8.52105L254.999 6.8053ZM258.222 13.5405C258.524 13.3932 258.738 13.2025 258.863 12.9684C258.983 12.7254 258.978 12.4887 258.848 12.2582C258.763 12.1076 258.629 11.9958 258.448 11.9228C258.275 11.8449 258.064 11.8122 257.814 11.8248L258.222 13.5405Z" fill="#DBA939"/>
<path d="M228.202 111.144C228.202 107.785 232.627 107.644 234.336 107.644H234.779V107.463C234.779 105.794 233.833 105.231 232.546 105.231C230.977 105.231 229.71 106.216 229.71 106.216L228.906 104.788C228.906 104.788 230.374 103.582 232.707 103.582C235.281 103.582 236.73 104.99 236.73 107.564V114H234.919V113.035C234.919 112.572 234.96 112.23 234.96 112.23H234.919C234.919 112.23 234.095 114.241 231.661 114.241C229.911 114.241 228.202 113.175 228.202 111.144ZM230.173 111.043C230.173 111.868 230.816 112.673 232.084 112.673C233.733 112.673 234.799 110.943 234.799 109.434V109.113H234.296C232.828 109.113 230.173 109.213 230.173 111.043ZM243.038 114V99.8004H244.989V104.446C244.989 104.949 244.948 105.311 244.948 105.311H244.989C244.989 105.311 245.854 103.582 248.247 103.582C250.982 103.582 252.712 105.754 252.712 108.911C252.712 112.15 250.761 114.241 248.086 114.241C245.813 114.241 244.888 112.492 244.888 112.492H244.848C244.848 112.492 244.888 112.813 244.888 113.256V114H243.038ZM244.928 108.952C244.928 110.762 245.874 112.572 247.804 112.572C249.413 112.572 250.741 111.245 250.741 108.932C250.741 106.719 249.554 105.291 247.865 105.291C246.336 105.291 244.928 106.357 244.928 108.952ZM254.087 111.224V99.8004H256.038V110.883C256.038 112.109 256.52 112.331 257.124 112.331C257.305 112.331 257.466 112.311 257.466 112.311V114.04C257.466 114.04 257.164 114.08 256.822 114.08C255.716 114.08 254.087 113.779 254.087 111.224ZM257.896 108.891C257.896 105.814 260.35 103.582 263.387 103.582C266.424 103.582 268.877 105.814 268.877 108.891C268.877 111.989 266.424 114.241 263.387 114.241C260.35 114.241 257.896 111.989 257.896 108.891ZM259.887 108.891C259.887 111.023 261.476 112.552 263.387 112.552C265.317 112.552 266.886 111.023 266.886 108.891C266.886 106.78 265.317 105.271 263.387 105.271C261.476 105.271 259.887 106.78 259.887 108.891ZM271.206 115.85C271.206 115.85 272.473 116.534 274.001 116.534C275.771 116.534 277.219 115.75 277.219 113.678V112.934C277.219 112.612 277.24 112.29 277.24 112.29H277.199C276.596 113.296 275.651 113.879 274.182 113.879C271.347 113.879 269.637 111.607 269.637 108.67C269.637 105.754 271.266 103.582 274.082 103.582C276.536 103.582 277.28 105.09 277.28 105.09H277.32C277.32 105.09 277.3 104.949 277.3 104.768V103.823H279.17V113.578C279.17 116.936 276.616 118.224 274.042 118.224C272.815 118.224 271.548 117.882 270.562 117.379L271.206 115.85ZM274.565 112.19C275.972 112.19 277.26 111.345 277.26 108.69C277.26 106.035 275.972 105.271 274.384 105.271C272.614 105.271 271.608 106.558 271.608 108.63C271.608 110.742 272.734 112.19 274.565 112.19ZM285.608 114V99.8004H287.559V104.446C287.559 104.949 287.519 105.311 287.519 105.311H287.559C287.559 105.311 288.424 103.582 290.818 103.582C293.553 103.582 295.283 105.754 295.283 108.911C295.283 112.15 293.332 114.241 290.657 114.241C288.384 114.241 287.459 112.492 287.459 112.492H287.419C287.419 112.492 287.459 112.813 287.459 113.256V114H285.608ZM287.499 108.952C287.499 110.762 288.444 112.572 290.375 112.572C291.984 112.572 293.312 111.245 293.312 108.932C293.312 106.719 292.125 105.291 290.435 105.291C288.907 105.291 287.499 106.357 287.499 108.952ZM295.35 117.6L296.034 116.112C296.034 116.112 296.597 116.534 297.22 116.534C298.005 116.534 298.669 115.971 299.051 115.046L299.554 113.879L295.29 103.823H297.482L300.036 110.48C300.237 111.003 300.418 111.707 300.418 111.707H300.459C300.459 111.707 300.62 111.023 300.801 110.5L303.274 103.823H305.386L300.62 115.83C299.996 117.399 298.749 118.224 297.321 118.224C296.175 118.224 295.35 117.6 295.35 117.6Z" fill="#575C67"/>
<path d="M310.953 101.931H315.255L314.916 114.999H311.046L310.953 101.931Z" fill="#DF2B64"/>
<path d="M321.578 105.726L321.609 111.3C322.225 111.677 322.873 111.882 323.552 111.882C324.663 111.882 325.542 111.441 326.174 110.545C326.606 109.946 326.807 109.222 326.807 108.34C326.807 107.269 326.482 106.451 325.835 105.899C325.234 105.379 324.524 105.128 323.707 105.128C322.966 105.143 322.273 105.332 321.578 105.726ZM321.748 95.6958L321.655 102.073C322.735 101.71 323.722 101.538 324.632 101.538C325.82 101.538 326.9 101.9 327.886 102.608C329.645 103.883 330.509 105.757 330.509 108.245C330.509 110.527 329.753 112.339 328.226 113.645C326.901 114.794 325.28 115.376 323.369 115.376C321.796 115.376 320.268 114.983 318.835 114.18C318.419 113.944 318.018 113.676 317.617 113.346C317.787 112.685 317.864 111.866 317.864 110.89L317.694 98.7511C317.694 98.0423 317.617 97.256 317.477 96.3896L321.748 95.6958Z" fill="#DF2B64"/>
<path d="M338.621 105.002C337.603 105.002 336.785 105.411 336.169 106.246C335.66 106.954 335.413 107.694 335.413 108.497C335.413 109.378 335.706 110.166 336.276 110.844C336.862 111.536 337.556 111.867 338.374 111.867C339.037 111.867 339.638 111.646 340.194 111.19C341.104 110.45 341.566 109.506 341.566 108.34C341.566 107.253 341.195 106.372 340.441 105.663C339.947 105.222 339.345 105.002 338.621 105.002ZM338.636 101.396C339.9 101.396 341.088 101.743 342.182 102.451C344.31 103.822 345.374 105.806 345.374 108.403C345.374 109.458 345.143 110.481 344.649 111.457C344.001 112.78 343.03 113.803 341.719 114.528C340.671 115.11 339.544 115.394 338.31 115.394C336.182 115.394 334.47 114.623 333.175 113.08C332.127 111.82 331.602 110.341 331.602 108.625C331.602 106.562 332.342 104.799 333.823 103.365C335.181 102.041 336.785 101.396 338.636 101.396Z" fill="#DF2B64"/>
<path d="M354.86 102.829L354.844 106.025L351.652 105.994L351.575 109.096L351.559 109.693C351.559 110.323 351.652 110.763 351.837 111.047C352.161 111.504 352.562 111.74 353.071 111.74C353.456 111.74 353.965 111.599 354.582 111.3L355.569 113.898C354.397 114.763 353.241 115.204 352.084 115.204C350.911 115.204 349.925 114.81 349.092 114.039C348.275 113.267 347.858 112.354 347.874 111.284L347.889 105.93L346.162 105.883L346.178 102.75H347.951L347.966 100.829C347.982 99.8061 347.951 99.066 347.874 98.6248L351.761 98.6723C351.761 98.8773 351.745 99.1923 351.714 99.6486C351.7 99.8061 351.7 100.152 351.684 100.687L351.637 102.781L354.86 102.829Z" fill="#DF2B64"/>
<path d="M364.638 102.829L364.623 106.025L361.431 105.994L361.354 109.096L361.34 109.693C361.34 110.323 361.431 110.763 361.617 111.047C361.925 111.504 362.342 111.74 362.851 111.74C363.236 111.74 363.745 111.599 364.363 111.3L365.35 113.898C364.178 114.763 363.021 115.204 361.864 115.204C360.693 115.204 359.706 114.81 358.873 114.039C358.056 113.267 357.639 112.354 357.655 111.284L357.671 105.93L355.944 105.883L355.958 102.75H357.732L357.748 100.829C357.762 99.8061 357.732 99.066 357.655 98.6248L361.541 98.6723C361.541 98.8773 361.527 99.1923 361.495 99.6486C361.48 99.8061 361.48 100.152 361.464 100.687L361.418 102.781L364.638 102.829Z" fill="#DF2B64"/>
<path d="M371.701 108.512C371.115 108.512 370.637 108.732 370.25 109.157C369.896 109.566 369.711 109.991 369.711 110.463C369.711 110.999 369.928 111.486 370.374 111.927C370.745 112.29 371.191 112.479 371.732 112.479C372.333 112.479 372.842 112.242 373.243 111.786C373.537 111.456 373.691 111.046 373.691 110.573C373.691 109.96 373.49 109.456 373.105 109.078C372.719 108.701 372.256 108.512 371.701 108.512ZM366.689 102.561C368.555 101.869 370.266 101.538 371.855 101.538C373.444 101.538 374.755 101.9 375.819 102.64C376.682 103.238 377.176 104.135 377.284 105.333C377.299 105.505 377.315 105.696 377.315 105.901L377.345 110.23C377.36 112.087 377.669 113.551 378.239 114.606L374.707 115.519L374.198 114.18C373.288 114.984 372.178 115.393 370.852 115.393C369.263 115.393 368.015 114.794 367.089 113.598C366.38 112.669 366.025 111.645 366.025 110.543C366.025 109.19 366.534 108.072 367.552 107.206C368.477 106.403 369.619 106.009 370.961 106.009C371.84 106.009 372.781 106.231 373.784 106.671C373.614 105.254 372.766 104.56 371.269 104.56C370.082 104.56 368.894 104.828 367.676 105.348L366.689 102.561Z" fill="#DF2B64"/>
<path d="M315.255 100.483H314.993C311.832 100.483 310.876 98.6874 310.876 98.6874V95.6333C310.876 95.6333 311.94 96.6722 314.947 96.6722H315.271V100.483H315.255Z" fill="#DF2B64"/>
<path d="M378.394 100.246C378.348 100.215 378.287 100.215 378.194 100.215H378.054V100.577H378.209C378.286 100.577 378.332 100.577 378.377 100.562C378.44 100.531 378.47 100.484 378.47 100.405C378.456 100.325 378.441 100.262 378.394 100.246ZM378.21 100.089C378.333 100.089 378.41 100.105 378.472 100.12C378.563 100.167 378.626 100.246 378.626 100.371C378.626 100.465 378.595 100.529 378.534 100.56C378.503 100.575 378.457 100.591 378.394 100.607C378.472 100.622 378.518 100.655 378.563 100.701C378.594 100.749 378.61 100.811 378.61 100.859V100.937C378.61 100.952 378.61 100.985 378.61 101.016C378.61 101.047 378.61 101.064 378.624 101.064V101.079H378.47C378.47 101.079 378.47 101.079 378.47 101.064C378.47 101.064 378.47 101.064 378.47 101.049V101.017V100.939C378.47 100.829 378.44 100.75 378.377 100.719C378.347 100.702 378.286 100.687 378.193 100.687H378.053V101.081H377.885V100.105H378.209V100.089H378.21ZM377.685 100.041C377.531 100.199 377.469 100.371 377.469 100.592C377.469 100.812 377.546 100.986 377.685 101.144C377.839 101.301 378.009 101.364 378.224 101.364C378.441 101.364 378.61 101.285 378.764 101.144C378.918 100.986 378.98 100.814 378.98 100.592C378.98 100.371 378.903 100.199 378.764 100.041C378.61 99.8836 378.44 99.8211 378.224 99.8211C378.025 99.8211 377.839 99.8836 377.685 100.041ZM378.857 101.222C378.687 101.395 378.472 101.49 378.239 101.49C377.993 101.49 377.792 101.396 377.623 101.222C377.454 101.05 377.361 100.829 377.361 100.592C377.361 100.34 377.454 100.136 377.623 99.9624C377.793 99.7898 378.008 99.6948 378.239 99.6948C378.486 99.6948 378.687 99.7886 378.857 99.9624C379.026 100.136 379.119 100.34 379.119 100.592C379.104 100.829 379.027 101.05 378.857 101.222Z" fill="#DF2B64"/>
<path d="M311.026 101.934H315.327L314.989 114.988H311.121L311.026 101.934Z" fill="#DF2B64"/>
<path d="M321.63 105.722L321.656 111.295C322.269 111.68 322.914 111.871 323.59 111.871C324.699 111.871 325.569 111.427 326.2 110.54C326.623 109.946 326.836 109.213 326.836 108.345C326.836 107.274 326.512 106.459 325.862 105.902C325.268 105.389 324.56 105.133 323.739 105.133C323.027 105.132 322.324 105.329 321.63 105.722ZM321.806 95.6896L321.711 102.058C322.784 101.701 323.776 101.523 324.687 101.523C325.868 101.523 326.951 101.879 327.933 102.593C329.682 103.865 330.558 105.744 330.558 108.233C330.558 110.521 329.8 112.319 328.285 113.628C326.959 114.78 325.346 115.357 323.443 115.357C321.866 115.357 320.355 114.959 318.912 114.163C318.497 113.934 318.091 113.655 317.695 113.325C317.866 112.666 317.947 111.847 317.938 110.869L317.776 98.7349C317.776 98.0211 317.704 97.2347 317.559 96.3746L321.806 95.6896Z" fill="#DF2B64"/>
<path d="M338.644 104.994C337.625 104.994 336.81 105.41 336.197 106.243C335.692 106.948 335.44 107.698 335.44 108.494C335.44 109.382 335.728 110.165 336.306 110.841C336.892 111.527 337.59 111.87 338.402 111.87C339.06 111.87 339.664 111.646 340.214 111.197C341.126 110.465 341.581 109.518 341.581 108.356C341.581 107.276 341.206 106.384 340.458 105.678C339.97 105.224 339.366 104.994 338.644 104.994ZM338.658 101.399C339.92 101.399 341.101 101.751 342.201 102.455C344.329 103.828 345.393 105.809 345.393 108.398C345.393 109.459 345.154 110.476 344.676 111.446C344.027 112.772 343.053 113.794 341.754 114.507C340.709 115.084 339.577 115.373 338.359 115.373C336.241 115.373 334.532 114.599 333.234 113.052C332.188 111.798 331.664 110.312 331.664 108.592C331.664 106.524 332.403 104.772 333.882 103.335C335.218 102.044 336.81 101.399 338.658 101.399Z" fill="#DF2B64"/>
<path d="M354.861 102.827L354.848 106.024L351.656 105.997L351.575 109.098L351.562 109.702C351.562 110.325 351.656 110.777 351.845 111.061C352.161 111.519 352.571 111.747 353.076 111.747C353.463 111.747 353.964 111.601 354.578 111.307L355.565 113.901C354.401 114.771 353.243 115.205 352.089 115.205C350.926 115.205 349.929 114.816 349.1 114.039C348.279 113.27 347.873 112.351 347.883 111.28L347.896 105.927L346.164 105.872L346.178 102.743H347.95L347.963 100.821C347.982 99.7962 347.95 99.0599 347.869 98.6111L351.751 98.6523C351.751 98.8536 351.738 99.1786 351.711 99.6262C351.702 99.7824 351.692 100.13 351.684 100.669L351.63 102.769L354.861 102.827Z" fill="#DF2B64"/>
<path d="M364.627 102.827L364.614 106.024L361.422 105.997L361.341 109.098L361.327 109.702C361.327 110.325 361.422 110.777 361.611 111.061C361.927 111.519 362.336 111.747 362.841 111.747C363.229 111.747 363.729 111.601 364.343 111.307L365.33 113.901C364.167 114.771 363.009 115.205 361.854 115.205C360.691 115.205 359.695 114.816 358.865 114.039C358.045 113.27 357.639 112.351 357.649 111.28L357.662 105.927L355.931 105.872L355.945 102.743H357.717L357.73 100.821C357.749 99.7962 357.717 99.0599 357.635 98.6111L361.517 98.6523C361.517 98.8536 361.503 99.1786 361.477 99.6262C361.467 99.7824 361.458 100.13 361.45 100.669L361.396 102.769L364.627 102.827Z" fill="#DF2B64"/>
<path d="M371.673 108.508C371.087 108.508 370.605 108.723 370.226 109.153C369.865 109.556 369.685 109.991 369.685 110.457C369.685 110.997 369.906 111.487 370.348 111.926C370.718 112.293 371.169 112.475 371.701 112.475C372.305 112.475 372.81 112.246 373.216 111.789C373.513 111.459 373.663 111.056 373.663 110.581C373.663 109.969 373.469 109.47 373.081 109.085C372.692 108.701 372.223 108.508 371.673 108.508ZM366.669 102.552C368.527 101.865 370.244 101.523 371.822 101.523C373.4 101.523 374.717 101.889 375.771 102.62C376.637 103.224 377.124 104.12 377.231 105.311C377.25 105.484 377.258 105.672 377.258 105.873L377.285 110.197C377.304 112.055 377.601 113.514 378.178 114.575L374.648 115.495L374.148 114.15C373.237 114.955 372.124 115.358 370.807 115.358C369.219 115.358 367.967 114.759 367.047 113.56C366.334 112.628 365.98 111.611 365.98 110.514C365.98 109.16 366.488 108.047 367.507 107.178C368.436 106.382 369.572 105.984 370.916 105.984C371.79 105.984 372.728 106.204 373.73 106.643C373.559 105.234 372.72 104.529 371.214 104.529C370.033 104.529 368.838 104.791 367.63 105.312L366.669 102.552Z" fill="#DF2B64"/>
<path d="M315.331 100.484H315.077C311.908 100.484 310.953 98.6899 310.953 98.6899V95.6333C310.953 95.6333 312.019 96.6684 315.013 96.6684H315.331V100.484Z" fill="#DF2B64"/>
<path d="M378.354 100.244C378.311 100.219 378.243 100.207 378.147 100.207H378.002V100.562H378.156C378.228 100.562 378.282 100.555 378.319 100.541C378.385 100.515 378.419 100.464 378.419 100.387C378.419 100.315 378.397 100.267 378.354 100.244ZM378.171 100.089C378.291 100.089 378.379 100.1 378.435 100.124C378.535 100.166 378.584 100.249 378.584 100.372C378.584 100.46 378.552 100.525 378.49 100.566C378.457 100.589 378.41 100.604 378.35 100.614C378.426 100.626 378.481 100.658 378.517 100.71C378.552 100.763 378.569 100.813 378.569 100.863V100.934C378.569 100.956 378.571 100.981 378.572 101.006C378.573 101.033 378.577 101.049 378.58 101.058L378.587 101.07H378.428C378.426 101.066 378.426 101.064 378.425 101.06C378.424 101.056 378.424 101.053 378.423 101.049L378.419 101.018V100.94C378.419 100.826 378.388 100.753 378.327 100.715C378.292 100.694 378.228 100.684 378.138 100.684H378.003V101.07H377.833V100.09H378.171V100.089ZM377.652 100.039C377.505 100.189 377.432 100.37 377.432 100.583C377.432 100.796 377.505 100.979 377.651 101.13C377.798 101.281 377.976 101.356 378.187 101.356C378.397 101.356 378.576 101.281 378.722 101.13C378.869 100.979 378.944 100.796 378.944 100.583C378.944 100.37 378.87 100.189 378.722 100.039C378.574 99.8874 378.396 99.8124 378.187 99.8124C377.979 99.8124 377.8 99.8874 377.652 100.039ZM378.81 101.215C378.639 101.39 378.431 101.478 378.187 101.478C377.943 101.478 377.735 101.39 377.564 101.215C377.394 101.041 377.308 100.829 377.308 100.581C377.308 100.335 377.394 100.125 377.567 99.9512C377.738 99.7774 377.944 99.6912 378.187 99.6912C378.43 99.6912 378.638 99.7774 378.81 99.9512C378.982 100.125 379.068 100.335 379.068 100.581C379.068 100.829 378.983 101.04 378.81 101.215Z" fill="#DF2B64"/>
</svg>
